<svg width="468" height="22" viewBox="0 0 468 22" fill="none" xmlns="http://www.w3.org/2000/svg">
<path d="M1 11.8435C26.8649 -1.35138 47.988 0.208479 55.3164 2.63777C55.7475 10.8207 61.0929 25.6522 79.0259 19.515C101.442 11.8435 97.9935 2.63777 121.703 2.63777C145.413 2.63777 136.791 19.515 158.776 19.515C180.761 19.515 182.486 2.63777 209.644 2.63777C236.802 2.63777 228.18 12.6107 240.682 19.515C253.183 26.4193 244.562 2.63777 271.289 2.63777C298.016 2.63777 291.118 19.515 313.535 19.515C335.951 19.515 319.139 2.63777 348.452 2.63777C377.766 2.63777 366.558 19.515 390.267 19.515C413.977 19.515 401.475 2.63777 429.496 2.63777C457.516 2.63777 448.463 27.1865 467 19.515" stroke="#B3E665" stroke-width="2"/>
</svg>
