<svg width="24" height="16" viewBox="0 0 24 16" fill="none" xmlns="http://www.w3.org/2000/svg">
<path d="M12.0051 10.3118L3.02634 1.33346C2.77971 1.08624 2.44995 0.950243 2.09834 0.950243C1.74654 0.950243 1.41698 1.08624 1.16995 1.33346L0.38361 2.12019C0.136195 2.36702 0 2.69697 0 3.04858C0 3.40019 0.136195 3.72975 0.38361 3.97678L11.0736 14.6669C11.3214 14.9149 11.6525 15.0507 12.0045 15.0498C12.358 15.0507 12.6888 14.9151 12.9368 14.6669L23.6164 3.98673C23.8638 3.73971 24 3.41015 24 3.05834C24 2.70673 23.8638 2.37717 23.6164 2.12995L22.83 1.34341C22.3182 0.831609 21.4851 0.831609 20.9735 1.34341L12.0051 10.3118Z" fill="#3A3A3A"/>
</svg>
