<svg width="30" height="30" viewBox="0 0 30 30" fill="none" xmlns="http://www.w3.org/2000/svg">
<g clip-path="url(#clip0_19_610)">
<path d="M10.8292 15.0063L19.6246 3.78293C19.8668 3.47463 20 3.06244 20 2.62293C20 2.18317 19.8668 1.77122 19.6246 1.46244L18.8539 0.479512C18.6121 0.170244 18.2889 0 17.9444 0C17.6 0 17.2771 0.170244 17.0351 0.479512L6.56281 13.8419C6.31986 14.1517 6.18682 14.5656 6.18778 15.0056C6.18682 15.4476 6.31967 15.861 6.56281 16.171L17.0254 29.5205C17.2674 29.8298 17.5902 30 17.9348 30C18.2793 30 18.6021 29.8298 18.8443 29.5205L19.6148 28.5376C20.1162 27.8978 20.1162 26.8563 19.6148 26.2168L10.8292 15.0063Z" fill="#B3E665"/>
</g>
<defs>
<clipPath id="clip0_19_610">
<rect width="30" height="30" fill="white"/>
</clipPath>
</defs>
</svg>
